<svg width="26" height="26" viewBox="0 0 26 26" fill="none" xmlns="http://www.w3.org/2000/svg">
<rect x="4.3335" y="4.3335" width="7.58333" height="7.58333" rx="1.5" fill="#464E5F"/>
<path opacity="0.3" fill-rule="evenodd" clip-rule="evenodd" d="M14.0835 5.8335C14.0835 5.00507 14.7551 4.3335 15.5835 4.3335H20.1668C20.9953 4.3335 21.6668 5.00507 21.6668 5.8335V10.4168C21.6668 11.2453 20.9953 11.9168 20.1668 11.9168H15.5835C14.7551 11.9168 14.0835 11.2453 14.0835 10.4168V5.8335ZM4.3335 15.5835C4.3335 14.7551 5.00507 14.0835 5.8335 14.0835H10.4168C11.2453 14.0835 11.9168 14.7551 11.9168 15.5835V20.1668C11.9168 20.9953 11.2453 21.6668 10.4168 21.6668H5.8335C5.00507 21.6668 4.3335 20.9953 4.3335 20.1668V15.5835ZM15.5835 14.0835C14.7551 14.0835 14.0835 14.7551 14.0835 15.5835V20.1668C14.0835 20.9953 14.7551 21.6668 15.5835 21.6668H20.1668C20.9953 21.6668 21.6668 20.9953 21.6668 20.1668V15.5835C21.6668 14.7551 20.9953 14.0835 20.1668 14.0835H15.5835Z" fill="#464E5F"/>
</svg>
