<svg width="19" height="19" viewBox="0 0 19 19" fill="none" xmlns="http://www.w3.org/2000/svg">
<path opacity="0.3" d="M11.3154 13.2265C11.0062 12.9173 11.0062 12.416 11.3154 12.1069C11.6245 11.7977 12.1258 11.7977 12.435 12.1069L15.6016 15.2735C15.9108 15.5827 15.9108 16.084 15.6016 16.3931C15.2925 16.7023 14.7912 16.7023 14.482 16.3931L11.3154 13.2265Z" fill="black"/>
<path fill-rule="evenodd" clip-rule="evenodd" d="M3.1665 8.70817C3.1665 11.7687 5.64759 14.2498 8.70817 14.2498C11.7687 14.2498 14.2498 11.7687 14.2498 8.70817C14.2498 5.64759 11.7687 3.1665 8.70817 3.1665C5.64759 3.1665 3.1665 5.64759 3.1665 8.70817ZM12.6665 8.70817C12.6665 10.8943 10.8943 12.6665 8.70817 12.6665C6.52204 12.6665 4.74984 10.8943 4.74984 8.70817C4.74984 6.52205 6.52204 4.74984 8.70817 4.74984C10.8943 4.74984 12.6665 6.52205 12.6665 8.70817Z" fill="black"/>
</svg>
