<svg width="223" height="241" viewBox="0 0 223 241" fill="none" xmlns="http://www.w3.org/2000/svg">
<path fill-rule="evenodd" clip-rule="evenodd" d="M137.678 59.8699C141.048 55.9566 143.33 51.1609 142.949 45.7871C141.85 30.3036 120.059 33.7098 115.82 41.5245C111.581 49.3392 112.084 69.1619 117.563 70.5586C119.748 71.1156 124.402 69.7511 129.139 66.9272L126.166 87.7322H143.722L137.678 59.8699Z" fill="#CFAF92"/>
<path fill-rule="evenodd" clip-rule="evenodd" d="M108.043 30.6914C108.406 29.4274 109.384 28.3453 110.702 28.0242C111.021 27.9463 111.351 27.9149 111.68 27.928C111.798 27.9327 111.831 27.9663 111.886 27.8847C111.927 27.8242 111.928 27.6765 111.945 27.6054C111.997 27.3843 112.063 27.1661 112.144 26.9534C112.419 26.2282 112.883 25.5864 113.441 25.0457C114.486 24.0343 115.898 23.3362 117.365 23.2099C118.168 23.1408 118.964 23.2698 119.723 23.5281C120.116 23.6618 120.497 23.8283 120.868 24.0123C120.98 24.0678 121.343 24.3391 121.455 24.3215C121.579 24.3021 121.827 23.9978 121.928 23.9214C123.173 22.9769 124.71 22.6056 126.26 22.617C128.01 22.6297 129.694 22.7162 131.154 23.7712C131.463 23.9946 131.757 24.2391 132.037 24.4966C132.185 24.6322 132.327 24.7728 132.464 24.9193C132.546 25.0077 132.626 25.098 132.703 25.1908C132.834 25.3484 132.813 25.4001 132.996 25.2902C133.698 24.8682 134.512 24.6708 135.332 24.7704C135.819 24.8296 136.292 24.9742 136.742 25.1644C136.895 25.2292 137.249 25.4875 137.413 25.49C137.574 25.4925 137.924 25.253 138.091 25.1922C138.991 24.8633 139.962 24.7823 140.909 24.9342C141.885 25.091 142.844 25.4764 143.672 26.0088C144.07 26.265 144.417 26.5488 144.696 26.9297C144.816 27.0941 144.925 27.2681 145.062 27.4205C145.141 27.5098 145.3 27.6014 145.343 27.7144C145.317 27.6468 146.41 27.2298 146.514 27.2031C147.063 27.0611 147.623 27.0899 148.162 27.2651C149.174 27.5946 150.045 28.3336 150.76 29.0912C151.128 29.4803 151.449 29.9105 151.722 30.3688C151.853 30.5883 151.973 30.8141 152.082 31.0446C152.135 31.1564 152.17 31.2961 152.24 31.3967C152.33 31.5264 152.391 31.5289 152.554 31.5854C153.382 31.8725 154.138 32.3584 154.713 33.015C155.295 33.6793 155.672 34.4974 155.83 35.3588C155.84 35.4096 155.845 35.6199 155.875 35.6473C155.916 35.6852 156.083 35.6684 156.146 35.6758C156.364 35.7011 156.581 35.7388 156.795 35.7888C157.189 35.8811 157.573 36.0169 157.936 36.1945C159.35 36.8869 160.362 38.1848 160.857 39.6453C161.377 41.178 161.368 42.934 160.747 44.4381C160.646 44.681 160.527 44.9168 160.387 45.1399C160.301 45.2769 160.273 45.2772 160.329 45.4209C160.391 45.5807 160.505 45.736 160.579 45.8922C160.82 46.4019 160.989 46.9425 161.096 47.4946C161.27 48.4003 161.357 49.352 161.185 50.2646C161.104 50.6883 160.965 51.1025 160.752 51.4799C160.643 51.6724 160.516 51.8549 160.373 52.0237C160.299 52.1114 160.219 52.1951 160.137 52.2753C160.089 52.3211 160.027 52.3612 159.987 52.4124C159.889 52.5371 159.868 52.4345 159.919 52.6178C159.99 52.8739 160.15 53.1266 160.249 53.3759C160.35 53.6328 160.441 53.8931 160.525 54.1561C160.695 54.6885 160.838 55.2306 160.928 55.782C161.1 56.8407 161.07 57.9687 160.563 58.9403C160.347 59.3559 160.036 59.7205 159.66 60.0041C159.475 60.1429 159.276 60.2625 159.066 60.3607C158.958 60.4112 158.821 60.4329 158.772 60.5359C158.719 60.6466 158.798 60.8664 158.815 60.9902C158.971 62.067 159.049 63.1975 158.726 64.2527C158.427 65.2246 157.771 66.0827 156.919 66.6509C155.266 67.7529 153.038 67.6908 151.301 66.8085C150.849 66.5785 150.425 66.2929 150.047 65.9561C149.085 67.2371 147.105 67.1966 145.699 66.8316C143.947 66.3768 142.542 65.172 141.732 63.589C140.624 64.9224 138.3 64.4898 137.532 63.0433C137.344 62.6893 137.233 62.2991 137.178 61.9042C137.149 61.6966 137.168 61.4871 137.146 61.2812C137.118 61.0187 136.941 60.7636 136.839 60.5097C136.641 60.0156 136.517 59.5051 136.512 58.9721C136.509 58.6938 136.545 58.4226 136.572 58.1466C136.596 57.8981 136.526 57.6665 136.487 57.4213C136.936 57.4944 137.483 57.3746 137.906 57.2457C138.322 57.1193 138.711 56.7863 139.004 56.4821C139.685 55.7759 140.101 54.8501 140.385 53.9286C141.009 51.9062 140.754 49.4798 138.697 48.3699C137.739 47.8528 134.869 47.8545 133.727 48.1101C132.528 48.3788 131.167 50.9973 131.1 51.2435C131.059 51.3958 131.08 51.5843 130.938 51.6858C130.627 51.909 130.115 51.5217 129.885 51.3306C129.489 51.0007 129.207 50.5617 128.963 50.1168C128.43 49.1475 128.001 48.108 127.697 47.0469C127.463 46.2288 127.314 45.3852 127.008 44.588C126.704 43.7947 126.224 43.0856 125.479 42.6362C124.668 42.1473 123.738 41.8899 122.848 41.5826C121.965 41.2782 121.098 40.906 120.414 40.26C120.263 40.1179 120.117 39.967 119.996 39.7997C119.9 39.6677 119.806 39.4149 119.66 39.3312C119.434 39.2009 119.103 39.5396 118.908 39.6626C117.942 40.2693 117.136 41.1156 116.486 42.04C115.84 42.9594 115.309 43.8441 114.878 44.8707C114.559 45.6321 114.359 46.6073 113.797 47.2313C113.546 47.5099 111.68 47.6785 111.076 47.4352C110.472 47.1919 109.794 46.5603 109.591 46.1645C109.384 45.7593 109.334 45.3143 109.423 44.8707C109.475 44.6098 109.582 44.366 109.64 44.1097C109.689 43.8944 109.734 43.6909 109.84 43.4937C110.04 43.12 110.383 42.8513 110.797 42.739C110.367 42.3464 110.01 41.8767 109.763 41.3517C109.507 40.8062 109.289 40.1429 109.227 39.5442C109.177 39.0579 109.255 38.5541 109.524 38.1362C109.806 37.6979 110.306 37.4119 110.739 37.1384C110.078 36.6269 109.512 36.0048 109.047 35.316C108.143 33.9766 107.583 32.2882 108.043 30.6914Z" fill="#191847"/>
<path fill-rule="evenodd" clip-rule="evenodd" d="M87.5159 138.453L64.1821 155.4C57.8536 157.089 52.5662 159.19 48.3202 161.704C47.3172 162.608 46.1049 164.439 50.2646 164.122C54.4243 163.806 58.814 163.658 59.388 165.061C59.9619 166.465 57.4447 168.143 58.6049 170.036C59.3784 171.299 63.0326 168.134 69.5675 160.541L92.674 151.064L87.5159 138.453ZM177.106 139.038L161.819 139.097C171.258 169.234 176.353 185.224 177.106 187.068C178.798 191.217 175.216 197.536 173.685 200.932C178.674 203.14 178.142 194.963 184.435 197.859C190.18 200.502 194.549 205.291 201.186 201.241C202.002 200.743 202.896 198.868 200.736 197.403C195.353 193.753 187.597 187.364 186.549 185.261C185.12 182.394 181.972 166.986 177.106 139.038Z" fill="#CFAF92"/>
<path fill-rule="evenodd" clip-rule="evenodd" d="M133.664 75.5945L127.338 74.5214C103.869 94.5737 94.2296 133.097 65.4622 153.504L72.3863 161.993C122.292 155.881 134.662 108.892 133.664 75.5945Z" fill="#E87613"/>
<path fill-rule="evenodd" clip-rule="evenodd" d="M161.238 154.217C135.875 154.217 117.219 154.217 105.269 154.217C102.712 154.217 103.194 150.564 103.563 148.721C107.83 127.45 124.486 104.52 124.486 74.2407L140.63 71.7368C153.983 92.9779 158.601 119.13 161.238 154.217Z" fill="#DDE3E9"/>
<path fill-rule="evenodd" clip-rule="evenodd" d="M160.788 92.6157C163.133 91.9491 164.99 90.3943 166.358 87.9514C172.259 77.4206 170.128 71.6227 163.822 69.7169C157.516 67.811 151.893 71.7367 141.846 71.7367C141.299 71.7367 140.799 71.7706 140.344 71.8383L135.29 72.1236C120.79 120.729 116.791 153.158 123.293 169.41H167.345C169.955 175.43 172.452 180.494 174.837 184.604H186.84C187.97 148.477 179.286 117.814 160.788 92.6157Z" fill="#FF9B21"/>
<path fill-rule="evenodd" clip-rule="evenodd" d="M157.752 144.448C156.367 155.913 154.115 164.234 150.997 169.411H167.345C164.3 162.389 161.103 154.068 157.752 144.448H157.752Z" fill="black" fill-opacity="0.1"/>
</svg>
